# xmcd
#
# Track frame offsets: 
#        150
#        17271
#        35815
#        55436
#        75178
#        90468
#        107079
#        131543
#        146437
#        170616
#
# Disc length: 2509 seconds
#
# Revision: 1
# Processed by: cddbd v1.5.2PL0 Copyright (c) Steve Scherf et al.
# Submitted via: ExactAudioCopy v1.3
#
DISCID=7609cb0a
DTITLE=Various Artist - 2 good 4 Opole
DYEAR=1999
DGENRE=Other
TTITLE0=Fair Play - Nie chcę być aniołem
TTITLE1=Patrizio Buanne - Uratuj mi życie
TTITLE2=Marcin Kleiber - Conic
TTITLE3=Lady Weak - Zawsze przy tobie
TTITLE4=Fair Play - Nie spiesz się
TTITLE5=LeBlue - Jestem trawą wśród wielu traw
TTITLE6=Stanisław Śnieżko - Outsider-blues odrzuconych
TTITLE7=Joanna Januszkiewicz - Dalej
TTITLE8=No Name - Mędrcy Świata
TTITLE9=Patrizio Buanne - Ciao, ciao, nie ma sprawy
EXTD=
EXTT0=
EXTT1=
EXTT2=
EXTT3=
EXTT4=
EXTT5=
EXTT6=
EXTT7=
EXTT8=
EXTT9=
PLAYORDER=
